<svg width="18" height="18" viewBox="0 0 18 18" fill="none" xmlns="http://www.w3.org/2000/svg">
<path d="M14.2334 6.9415V5.89984C14.2334 3.64984 13.6917 0.666504 9.00008 0.666504C4.30841 0.666504 3.76675 3.64984 3.76675 5.89984V6.9415C1.43341 7.23317 0.666748 8.4165 0.666748 11.3248V12.8748C0.666748 16.2915 1.70841 17.3332 5.12508 17.3332H12.8751C16.2917 17.3332 17.3334 16.2915 17.3334 12.8748V11.3248C17.3334 8.4165 16.5667 7.23317 14.2334 6.9415ZM9.00008 14.6165C7.60841 14.6165 6.48341 13.4832 6.48341 12.0998C6.48341 10.7082 7.61675 9.58317 9.00008 9.58317C10.3834 9.58317 11.5167 10.7165 11.5167 12.0998C11.5167 13.4915 10.3917 14.6165 9.00008 14.6165ZM5.12508 6.8665C5.05841 6.8665 5.00008 6.8665 4.93341 6.8665V5.89984C4.93341 3.45817 5.62508 1.83317 9.00008 1.83317C12.3751 1.83317 13.0667 3.45817 13.0667 5.89984V6.87484C13.0001 6.87484 12.9417 6.87484 12.8751 6.87484H5.12508V6.8665Z" fill="#758D96"/>
</svg>
